<?xml version="1.0" encoding="UTF-8"?>
<!DOCTYPE svg PUBLIC "-//W3C//DTD SVG 1.1//EN" "http://www.w3.org/Graphics/SVG/1.1/DTD/svg11.dtd">
<svg version="1.1" xmlns="http://www.w3.org/2000/svg" xmlns:xlink="http://www.w3.org/1999/xlink" x="0" y="0" width="842" height="778.92" viewBox="0, 0, 842, 778.92">
  <defs>
    <linearGradient id="Gradient_1" gradientUnits="userSpaceOnUse" x1="587.099" y1="649.807" x2="587.099" y2="282.837" gradientTransform="matrix(1, 0, 0, 1, -167, -89.81)">
      <stop offset="0" stop-color="#808080" stop-opacity="0.25"/>
      <stop offset="0.54" stop-color="#808080" stop-opacity="0.12"/>
      <stop offset="1" stop-color="#808080" stop-opacity="0.1"/>
    </linearGradient>
    <linearGradient id="Gradient_2" gradientUnits="userSpaceOnUse" x1="587.499" y1="674.818" x2="587.499" y2="615.128" gradientTransform="matrix(1, 0, 0, 1, -167, -89.81)">
      <stop offset="0" stop-color="#808080" stop-opacity="0.25"/>
      <stop offset="0.54" stop-color="#808080" stop-opacity="0.12"/>
      <stop offset="1" stop-color="#808080" stop-opacity="0.1"/>
    </linearGradient>
    <linearGradient id="Gradient_3" gradientUnits="userSpaceOnUse" x1="810.6" y1="767.54" x2="810.6" y2="362.71" gradientTransform="matrix(1, 0, 0, 1, -179, -60.54)">
      <stop offset="0" stop-color="#B3B3B3" stop-opacity="0.25"/>
      <stop offset="0.54" stop-color="#B3B3B3" stop-opacity="0.1"/>
      <stop offset="1" stop-color="#B3B3B3" stop-opacity="0.05"/>
    </linearGradient>
    <linearGradient id="Gradient_4" gradientUnits="userSpaceOnUse" x1="685.49" y1="507.08" x2="685.49" y2="487.6" gradientTransform="matrix(1, 0, 0, 1, -179, -60.54)">
      <stop offset="0" stop-color="#000000" stop-opacity="0.12"/>
      <stop offset="0.55" stop-color="#000000" stop-opacity="0.09"/>
      <stop offset="1" stop-color="#000000" stop-opacity="0.02"/>
    </linearGradient>
    <linearGradient id="Gradient_5" gradientUnits="userSpaceOnUse" x1="774.99" y1="484.73" x2="774.99" y2="425.15" gradientTransform="matrix(1, 0, 0, 1, -179, -60.54)">
      <stop offset="0" stop-color="#000000" stop-opacity="0.12"/>
      <stop offset="0.55" stop-color="#000000" stop-opacity="0.09"/>
      <stop offset="1" stop-color="#000000" stop-opacity="0.02"/>
    </linearGradient>
  </defs>
  <g id="Layer_1">
    <g>
      <g opacity="0.8">
        <path d="M695.129,559.997 L145.069,559.997 L145.069,208.818 C145.069,200.091 152.142,193.018 160.869,193.018 L679.319,193.018 C688.045,193.018 695.119,200.091 695.119,208.818 z" fill="url(#Gradient_1)"/>
      </g>
      <path d="M168.449,199.478 L671.749,199.478 C680.475,199.478 687.549,206.551 687.549,215.278 L687.549,559.998 L152.649,559.998 L152.649,215.278 C152.649,206.551 159.722,199.478 168.449,199.478 z" fill="#FFFFFF"/>
      <path d="M169.869,220.448 L670.329,220.448 L670.329,548.698 L169.869,548.698 z" fill="#F5F5F5"/>
      <path d="M171.789,236.388 L670.129,236.388 L670.129,531.708 L171.789,531.708 z" fill="#E0E0E0" opacity="0.8"/>
      <path d="M171.789,220.698 L670.129,220.698 L670.129,236.388 L171.789,236.388 z" fill="#F5F5F5"/>
      <path d="M186.269,228.298 C186.269,230.396 184.567,232.098 182.469,232.098 C180.37,232.098 178.669,230.396 178.669,228.298 C178.669,226.199 180.37,224.498 182.469,224.498 C184.567,224.498 186.269,226.199 186.269,228.298 z" fill="#FF5252"/>
      <path d="M196.729,228.298 C196.729,230.396 195.027,232.098 192.929,232.098 C190.83,232.098 189.129,230.396 189.129,228.298 C189.129,226.199 190.83,224.498 192.929,224.498 C195.027,224.498 196.729,226.199 196.729,228.298 z" fill="#FFFF00"/>
      <path d="M207.199,228.298 C207.199,230.396 205.497,232.098 203.399,232.098 C201.3,232.098 199.599,230.396 199.599,228.298 C199.599,226.199 201.3,224.498 203.399,224.498 C205.497,224.498 207.199,226.199 207.199,228.298 z" fill="#69F0AE"/>
      <g opacity="0.8">
        <path d="M710.519,583.588 C679.899,585.908 154.059,584.978 135.679,583.588 C111.589,571.978 111.999,526.938 111.999,526.938 L353.149,525.328 L353.959,539.038 L457.199,539.038 L461.199,526.938 L728.479,526.938 C728.479,526.938 733.789,568.268 710.519,583.588 z" fill="url(#Gradient_2)"/>
      </g>
      <path d="M724.559,530.568 L462.499,530.568 C464.605,532.94 465.11,536.333 463.786,539.216 C462.463,542.099 459.561,543.928 456.389,543.878 L356.389,543.878 C353.217,543.928 350.314,542.099 348.991,539.216 C347.667,536.333 348.172,532.94 350.279,530.568 L115.629,530.568 C115.629,530.568 115.229,569.688 139.019,579.768 C157.169,580.978 676.579,581.768 706.819,579.768 C729.809,566.458 724.559,530.568 724.559,530.568 z" fill="#F5F5F5"/>
      <path d="M173.299,539.028 C173.299,540.811 171.852,542.258 170.069,542.258 C168.285,542.258 166.839,540.811 166.839,539.028 C166.839,537.244 168.285,535.798 170.069,535.798 C171.852,535.798 173.299,537.244 173.299,539.028 z" fill="#E0E0E0"/>
      <path d="M182.979,539.028 C182.979,540.811 181.532,542.258 179.749,542.258 C177.965,542.258 176.519,540.811 176.519,539.028 C176.519,537.244 177.965,535.798 179.749,535.798 C181.532,535.798 182.979,537.244 182.979,539.028 z" fill="#E0E0E0"/>
      <path d="M192.659,539.028 C192.659,540.811 191.212,542.258 189.429,542.258 C187.645,542.258 186.199,540.811 186.199,539.028 C186.199,537.244 187.645,535.798 189.429,535.798 C191.212,535.798 192.659,537.244 192.659,539.028 z" fill="#E0E0E0"/>
    </g>
    <path d="M450.809,434.918 L484.029,441.52 L469.233,515.974 L436.013,509.372 z" fill="#3AD29F" display="none"/>
    <path d="M503.55,481.12 L536.771,487.722 L528.805,527.808 L495.584,521.207 z" fill="#F55F44" display="none"/>
    <path d="M571.308,451.721 L604.528,458.323 L588.366,539.652 L555.145,533.05 z" fill="#FDD835" display="none"/>
    <path d="M701.45,350.01 C672.341,319.734 632.247,302.485 590.249,302.169 C548.251,301.853 507.902,318.496 478.34,348.33 C419.34,407.81 418.34,504.66 476.05,565.4 C528.397,620.499 612.848,629.818 675.95,587.46 L788.64,704.67 C791.545,707.69 796.349,707.784 799.37,704.88 L827.45,677.88 C830.47,674.975 830.564,670.171 827.66,667.15 L715,549.95 C759.589,488.842 753.876,404.543 701.45,350.01 z M666.35,538.46 C621.958,581.137 551.375,579.747 508.698,535.356 C466.02,490.966 467.408,420.383 511.797,377.704 C556.187,335.025 626.77,336.411 669.45,380.8 C712.133,425.192 710.745,495.78 666.35,538.46 z" fill="url(#Gradient_3)"/>
    <path d="M506.49,427.06 C493.95,427.06 493.93,446.55 506.49,446.55 C519.05,446.55 519.05,427.06 506.49,427.06 z" fill="url(#Gradient_4)"/>
    <path d="M593.9,364.63 C560.15,363.87 529.44,380.8 513.11,406.36 C507.78,414.7 522.91,422.07 528.21,413.77 C541.73,392.61 567.42,379.17 595.21,379.87 C624.33,380.6 650.83,397.26 664.86,420.38 C670.18,429.15 684.13,421.18 678.86,412.46 C661.8,384.46 628.76,365.46 593.9,364.63 z" fill="url(#Gradient_5)"/>
    <path d="M713.68,344.09 C684.571,313.814 644.477,296.565 602.479,296.249 C560.481,295.932 520.132,312.576 490.57,342.41 C431.57,401.89 430.57,498.74 488.28,559.48 C540.63,614.575 625.08,623.891 688.18,581.53 L800.86,698.75 C803.765,701.77 808.569,701.864 811.59,698.96 L839.67,671.96 C842.69,669.055 842.784,664.251 839.88,661.23 L727.19,544.02 C771.784,482.924 766.088,398.631 713.68,344.09 z M678.58,532.46 C634.188,575.137 563.605,573.747 520.928,529.356 C478.25,484.966 479.638,414.383 524.028,371.704 C568.417,329.025 639,330.411 681.68,374.8 C724.363,419.192 722.975,489.78 678.58,532.46 z" fill="#D71920"/>
    <path d="M518.72,421.13 C506.18,421.13 506.16,440.62 518.72,440.62 C531.28,440.62 531.28,421.13 518.72,421.13 z" fill="#D71920"/>
    <path d="M606.13,358.71 C572.38,357.95 541.67,374.88 525.34,400.44 C520.01,408.78 535.14,416.15 540.44,407.85 C553.96,386.69 579.65,373.25 607.44,373.95 C636.56,374.68 663.06,391.34 677.09,414.46 C682.41,423.23 696.36,415.26 691.09,406.54 C674,378.46 641,359.46 606.13,358.71 z" fill="#D71920"/>
    <path d="M571.87,7.95 C569.87,7.079 568.841,4.846 569.48,2.76 C569.529,2.604 569.559,2.443 569.57,2.28 L569.57,2.28 C569.635,1.328 569.065,0.447 568.17,0.117 C567.275,-0.214 566.269,0.085 565.7,0.85 L565.7,0.85 C565.604,0.98 565.523,1.121 565.46,1.27 C564.589,3.27 562.356,4.299 560.27,3.66 C560.114,3.611 559.953,3.581 559.79,3.57 L559.79,3.57 C558.83,3.501 557.942,4.077 557.614,4.982 C557.286,5.886 557.599,6.898 558.38,7.46 L558.38,7.46 C558.51,7.556 558.651,7.637 558.8,7.7 C560.8,8.571 561.829,10.804 561.19,12.89 C561.141,13.046 561.111,13.207 561.1,13.37 L561.1,13.37 C561.023,14.335 561.601,15.233 562.512,15.562 C563.423,15.892 564.442,15.571 565,14.78 L565,14.78 C565.096,14.65 565.177,14.509 565.24,14.36 C566.111,12.36 568.344,11.331 570.43,11.97 C570.586,12.019 570.747,12.049 570.91,12.06 L570.91,12.06 C571.862,12.125 572.743,11.555 573.073,10.66 C573.404,9.765 573.105,8.759 572.34,8.19 L572.34,8.19 C572.194,8.09 572.036,8.01 571.87,7.95 z" fill="#4D8AF0" display="none"/>
    <path d="M755.22,762.36 C753.22,761.489 752.191,759.256 752.83,757.17 C752.879,757.014 752.909,756.853 752.92,756.69 L752.92,756.69 C752.985,755.738 752.415,754.857 751.52,754.527 C750.625,754.196 749.62,754.495 749.05,755.26 L749.05,755.26 C748.954,755.39 748.873,755.531 748.81,755.68 C747.939,757.68 745.706,758.709 743.62,758.07 C743.464,758.021 743.303,757.991 743.14,757.98 L743.14,757.98 C742.188,757.915 741.307,758.485 740.977,759.38 C740.646,760.275 740.945,761.281 741.71,761.85 L741.71,761.85 C741.84,761.946 741.981,762.027 742.13,762.09 C744.13,762.961 745.159,765.194 744.52,767.28 C744.471,767.436 744.441,767.597 744.43,767.76 L744.43,767.76 C744.365,768.712 744.935,769.593 745.83,769.923 C746.725,770.254 747.731,769.956 748.3,769.19 L748.3,769.19 C748.396,769.06 748.477,768.919 748.54,768.77 C749.411,766.77 751.644,765.741 753.73,766.38 C753.886,766.429 754.047,766.459 754.21,766.47 L754.21,766.47 C755.162,766.535 756.043,765.965 756.373,765.07 C756.704,764.175 756.406,763.169 755.64,762.6 L755.64,762.6 C755.51,762.504 755.369,762.423 755.22,762.36 z" fill="#FDD835" display="none"/>
    <path d="M830.32,162.91 C830.32,166.782 827.182,169.92 823.31,169.92 C819.438,169.92 816.3,166.782 816.3,162.91 C816.3,159.038 819.438,155.9 823.31,155.9 C827.182,155.9 830.32,159.038 830.32,162.91 z" fill="#F55F44" display="none"/>
    <path d="M790.62,371.95 C790.62,375.822 787.482,378.96 783.61,378.96 C779.738,378.96 776.6,375.822 776.6,371.95 C776.6,368.078 779.738,364.94 783.61,364.94 C787.482,364.94 790.62,368.078 790.62,371.95 z" fill="#4D8AF0" display="none"/>
  </g>
</svg>
